<svg width="35" height="35" viewBox="0 0 35 35" fill="none" xmlns="http://www.w3.org/2000/svg">
<path d="M17.5 2.66667C9.30777 2.66667 2.66667 9.30777 2.66667 17.5C2.66667 25.6922 9.30777 32.3333 17.5 32.3333C25.6922 32.3333 32.3333 25.6922 32.3333 17.5C32.3333 9.30777 25.6922 2.66667 17.5 2.66667ZM0.25 17.5C0.25 7.97311 7.97311 0.25 17.5 0.25C27.0269 0.25 34.75 7.97311 34.75 17.5C34.75 27.0269 27.0269 34.75 17.5 34.75C7.97311 34.75 0.25 27.0269 0.25 17.5Z" fill="#C2C2C2" stroke="#C2C2C2" stroke-width="0.5"/>
<path d="M7.30738 24.1062C7.39892 24.1429 7.52343 24.1782 7.68543 24.2242C7.70632 24.2301 7.72783 24.2362 7.74998 24.2425C7.93647 24.2956 8.15465 24.3597 8.37664 24.4465C8.81797 24.6191 9.30376 24.8922 9.61054 25.3857C9.73374 25.584 9.86029 25.8008 9.98738 26.0185C9.99946 26.0392 10.0115 26.0599 10.0236 26.0806C10.1638 26.3206 10.3049 26.5607 10.4474 26.7857C10.7396 27.247 11.0134 27.6035 11.2616 27.7667C11.4085 27.8633 11.696 27.9505 12.1661 28.0021C12.6267 28.0527 13.2297 28.0662 13.979 28.0403L14.2499 28.0309L14.2374 28.3016C14.1669 29.8315 14.1319 30.9979 14.1319 31.8031C14.1319 32.2064 14.1407 32.5143 14.1576 32.7302C14.1647 32.8209 14.1729 32.8914 14.1816 32.9439C14.7461 33.0689 15.3341 33.1599 15.9459 33.2168C16.9447 33.3098 17.1875 33.312 17.9052 33.2891C18.6268 33.2661 19.3583 33.2066 20.0293 33.1011C20.371 33.0474 20.8436 32.9457 21.4497 32.7943C21.5775 30.9493 21.6355 29.4655 21.6244 28.3406C21.6128 27.1655 21.5253 26.4192 21.3842 26.0576C21.152 25.4625 20.9593 25.1674 20.8297 24.992C20.8091 24.9642 20.7857 24.934 20.7623 24.9036C20.722 24.8514 20.6815 24.7989 20.6549 24.7585C20.5996 24.6745 20.5541 24.5759 20.5541 24.4455C20.5541 24.2923 20.6108 24.1545 20.7172 24.045C20.8176 23.9415 20.9522 23.8733 21.0978 23.8269L21.1086 23.8234L21.1198 23.821C23.1791 23.3657 24.5533 22.1105 25.2596 20.0233C26.2343 17.1428 24.8518 15.057 24.2665 14.1741C24.2178 14.1005 24.1746 14.0353 24.1387 13.9787C24.1387 13.9787 24.1387 13.9787 24.1387 13.9787L24.3499 13.8449C23.9187 13.1642 24.4294 11.5605 25.0894 10.2024L7.30738 24.1062ZM7.30738 24.1062C7.24943 24.0829 7.20793 24.0478 7.18506 24.0188C7.22415 24.0051 7.30177 23.9882 7.44242 23.992C7.66039 23.998 7.98612 24.0531 8.45098 24.1966C9.33262 24.4688 9.78926 24.9696 10.1036 25.4561C10.2116 25.6233 10.2976 25.7796 10.3817 25.9322C10.4261 26.0129 10.4699 26.0925 10.5162 26.1722C10.6387 26.3835 10.7836 26.6052 10.992 26.7351C11.1835 26.8544 11.4242 26.9216 11.6713 26.9567C11.9214 26.9923 12.1952 26.9974 12.4655 26.9808C13.001 26.9479 13.556 26.8276 13.9184 26.6606L13.8138 26.4335L13.9184 26.6606C14.359 26.4576 14.5319 25.9945 14.6182 25.6119C14.6631 25.4128 14.6896 25.2113 14.7116 25.0403L14.7131 25.0284C14.7347 24.8602 14.7508 24.734 14.773 24.6454C14.8234 24.4963 14.8219 24.3521 14.7678 24.2232C14.7146 24.0966 14.622 24.0119 14.5404 23.9575C14.3865 23.8549 14.1957 23.8175 14.222 23.8253L14.1874 23.8151H14.1513C13.8829 23.8151 12.9309 23.648 11.9335 23.0801C10.9452 22.5175 9.93398 21.574 9.49748 20.0352C8.60751 16.8975 9.75173 14.8605 10.3574 13.9874L10.3574 13.9874C10.6135 13.6183 10.7084 13.078 10.6893 12.4146C10.6718 11.8072 10.5575 11.0641 10.351 10.189C11.0991 10.128 11.7578 10.219 12.333 10.4537C12.9775 10.7166 13.5321 11.1657 13.9961 11.8124L14.002 11.8082C14.0155 11.8297 14.0298 11.8489 14.0426 11.8614C14.0743 11.8832 14.1339 11.9079 14.1595 11.9135C14.2046 11.9207 14.2404 11.9135 14.2487 11.9118L14.2491 11.9117C14.2712 11.9072 14.2881 11.9005 14.2916 11.8991L14.292 11.899C14.3021 11.895 14.3103 11.891 14.3126 11.8899L14.3127 11.8898C14.319 11.8867 14.3258 11.8831 14.3304 11.8807L14.3737 11.858C14.4104 11.839 14.4651 11.8112 14.5371 11.7775C14.6813 11.7101 14.8954 11.6185 15.1713 11.5264C15.7232 11.3422 16.5213 11.1562 17.5001 11.1562C18.9383 11.1562 19.6375 11.464 20.1652 11.6963C20.369 11.786 20.5471 11.8644 20.7324 11.9095L7.30738 24.1062ZM22.0879 10.8009C22.5979 10.3585 23.4022 9.94744 24.8328 10.159L20.7324 11.9095C20.9067 11.9519 21.0518 11.8789 21.1512 11.8032C21.2481 11.7296 21.3403 11.6244 21.4256 11.5225C21.4552 11.4872 21.4853 11.4506 21.5161 11.4131C21.6733 11.2221 21.8503 11.007 22.0879 10.8009Z" fill="#C2C2C2" stroke="#C2C2C2" stroke-width="0.5"/>
</svg>
